<?xml version="1.0" encoding="UTF-8" standalone="no"?>
<svg
   xmlns:dc="http://purl.org/dc/elements/1.1/"
   xmlns:cc="http://creativecommons.org/ns#"
   xmlns:rdf="http://www.w3.org/1999/02/22-rdf-syntax-ns#"
   xmlns:svg="http://www.w3.org/2000/svg"
   xmlns="http://www.w3.org/2000/svg"
   xmlns:sodipodi="http://sodipodi.sourceforge.net/DTD/sodipodi-0.dtd"
   xmlns:inkscape="http://www.inkscape.org/namespaces/inkscape"
   sodipodi:docname="circle.svg"
   inkscape:version="1.0 (4035a4fb49, 2020-05-01)"
   id="svg8"
   version="1.1"
   viewBox="0 0 26.458333 26.458334"
   height="100"
   width="100">
  <defs
     id="defs2" />
  <sodipodi:namedview
     inkscape:window-maximized="1"
     inkscape:window-y="27"
     inkscape:window-x="0"
     inkscape:window-height="1016"
     inkscape:window-width="1920"
     units="px"
     showgrid="false"
     inkscape:document-rotation="0"
     inkscape:current-layer="layer1"
     inkscape:document-units="mm"
     inkscape:cy="73.383862"
     inkscape:cx="104.35819"
     inkscape:zoom="4.0965771"
     inkscape:pageshadow="2"
     inkscape:pageopacity="0.0"
     borderopacity="1.0"
     bordercolor="#666666"
     pagecolor="#ffffff"
     id="base" />
  <metadata
     id="metadata5">
    <rdf:RDF>
      <cc:Work
         rdf:about="">
        <dc:format>image/svg+xml</dc:format>
        <dc:type
           rdf:resource="http://purl.org/dc/dcmitype/StillImage" />
        <dc:title />
      </cc:Work>
    </rdf:RDF>
  </metadata>
  <g
     id="layer1"
     inkscape:groupmode="layer"
     inkscape:label="Layer 1">
    <path
       style="fill:#000000;fill-opacity:0.38944817;fill-rule:evenodd;stroke:#ffffff;stroke-width:0.18;stroke-miterlimit:4;stroke-dasharray:none;stroke-dashoffset:0;stroke-opacity:1"
       d="M 11.720646,25.805735 C 10.520641,25.641828 9.4825509,25.367206 8.442901,24.938623 7.5289183,24.561844 7.574869,24.605439 7.791199,24.320321 8.0387096,23.994107 8.391418,23.262087 8.4938483,22.862025 8.7321338,21.931354 8.6340941,20.984304 8.2087457,20.10797 7.9917657,19.660932 7.8768528,19.505281 7.4461007,19.07496 7.034351,18.663621 6.8500095,18.524757 6.4663174,18.336892 6.2063808,18.209621 5.8310718,18.062887 5.6322968,18.010819 c -0.4853566,-0.127141 -1.4606911,-0.127141 -1.946048,0 -0.4723605,0.123734 -1.1890965,0.478032 -1.4909936,0.737029 -0.1388708,0.119137 -0.2606236,0.185155 -0.289005,0.156709 C 1.8792772,18.877521 1.7327298,18.565278 1.5805893,18.210682 0.15564834,14.88955 0.17593458,11.285903 1.638375,7.9456459 1.7621999,7.6628264 1.8761187,7.4314282 1.8915278,7.4314282 c 0.015409,0 0.1815742,0.1163561 0.3692556,0.2585687 C 2.97468,8.2309414 3.7853716,8.5056393 4.6592728,8.5027106 5.7466382,8.4990631 6.6770498,8.1131593 7.440058,7.3493236 8.2122198,6.5763241 8.5708474,5.7715735 8.6209274,4.6994841 8.6670134,3.7129091 8.4240347,2.9445382 7.8095695,2.1337269 L 7.5231915,1.7558388 8.0094794,1.5307142 C 9.0381486,1.0544967 10.479694,0.64783552 11.748447,0.47594824 c 0.659057,-0.0892872 2.428565,-0.0896892 3.058075,-6.9603e-4 1.299362,0.18369182 2.52617,0.52148718 3.585617,0.98728099 0.78544,0.3453245 0.748595,0.2989166 0.486391,0.6126143 -0.57026,0.6822526 -0.869164,1.5304836 -0.868819,2.4655419 2.65e-4,0.6971134 0.100697,1.1274649 0.408699,1.7511201 0.51393,1.0406266 1.464881,1.8124543 2.615466,2.1228104 0.488837,0.1318577 1.381221,0.1174829 1.954616,-0.031486 0.52175,-0.1355506 0.871733,-0.3090464 1.3433,-0.6659081 l 0.361374,-0.2734726 0.233296,0.5020306 c 0.522343,1.1240295 0.926375,2.6667122 1.059162,4.0441142 0.08033,0.833248 0.04004,2.229109 -0.08825,3.057512 -0.181709,1.173329 -0.655622,2.710066 -1.119384,3.629781 l -0.134392,0.266519 -0.234121,-0.201417 c -0.273854,-0.2356 -0.984725,-0.589897 -1.450162,-0.722759 -0.259726,-0.07414 -0.492615,-0.08843 -1.139829,-0.0699 -0.746305,0.02136 -0.848456,0.0372 -1.23825,0.192162 -1.156194,0.459625 -2.049731,1.404321 -2.421796,2.560455 -0.115368,0.358488 -0.139135,0.541656 -0.139055,1.071688 1.67e-4,1.063805 0.234452,1.823732 0.761878,2.47115 l 0.241714,0.296704 -0.426784,0.19394 c -1.055432,0.479609 -2.22957,0.835444 -3.346916,1.014318 -0.790253,0.12651 -2.781151,0.157921 -3.529628,0.05569 z m 2.536759,-2.419659 c 0.778266,-0.05611 1.834631,-0.284898 2.606368,-0.564483 l 0.361409,-0.130931 0.03127,-0.833602 c 0.02001,-0.533206 0.06663,-0.962661 0.129394,-1.191732 0.385031,-1.405325 1.441407,-2.609751 2.773969,-3.162737 0.571618,-0.237211 1.155416,-0.342718 1.896343,-0.342718 h 0.637765 l 0.110238,-0.294585 c 0.06063,-0.16202 0.206297,-0.668595 0.323703,-1.125719 l 0.213464,-0.831137 v -1.445369 c 0,-0.986714 -0.02316,-1.551212 -0.07299,-1.778914 C 23.140003,11.09771 22.926596,10.365358 22.723622,9.8148393 L 22.526328,9.2797172 21.798168,9.2394534 C 20.934339,9.1916875 20.607978,9.1158824 19.981021,8.8173747 19.205959,8.4483516 18.536001,7.893576 18.105924,7.264655 17.610103,6.539595 17.342336,5.7659827 17.250618,4.7935737 17.219016,4.4585241 17.187855,4.179855 17.18137,4.1743088 17.174887,4.1687619 16.884549,4.0725211 16.536177,3.9604382 14.933211,3.4447108 13.436144,3.3208876 11.85965,3.5736402 11.205779,3.6784728 10.217976,3.9352841 9.7745988,4.1157173 L 9.4409905,4.2514796 9.3974774,4.6879385 C 9.2594681,6.0722446 8.8942579,6.9335393 8.0871337,7.7781913 7.1775839,8.7300303 5.9420695,9.2659348 4.6571782,9.2659348 H 4.3082413 L 4.1417994,9.6689704 c -0.2180856,0.5280896 -0.4933581,1.4999606 -0.60227,2.1263606 -0.069282,0.398468 -0.081413,0.783238 -0.059593,1.890097 0.029759,1.509559 0.054974,1.683639 0.4075423,2.813622 l 0.2014254,0.645569 0.7299954,0.03135 c 0.495801,0.0213 0.8621649,0.06918 1.1419744,0.149257 1.4575012,0.417132 2.6791246,1.563989 3.1399216,2.947749 0.1874314,0.562851 0.2558724,1.025552 0.2563732,1.733228 l 4.517e-4,0.59361 0.3141229,0.117507 c 0.8784377,0.328605 1.8860067,0.578412 2.7717527,0.687203 0.342026,0.04201 1.079456,0.03451 1.813941,-0.01844 z"
       id="path844" />
    <path
       transform="scale(0.26458333)"
       id="path888"
       d="M 46.50074,89.047121 C 45.580006,88.94212 44.026267,88.700917 43.047987,88.511114 41.207845,88.154097 36.208989,86.601189 35.202769,86.073976 l -0.572324,-0.29987 0.03402,-2.639054 c 0.06657,-5.164603 -1.571068,-9.303396 -5.027913,-12.706986 -3.27456,-3.224113 -7.25183,-4.83634 -12.058484,-4.888031 l -2.556196,-0.02749 -0.831358,-2.511093 c -1.462592,-4.417716 -1.796445,-6.632827 -1.797699,-11.927693 -8.54e-4,-3.609987 0.08319,-5.055345 0.389392,-6.696248 0.484291,-2.595303 1.596113,-6.32617 2.462999,-8.264922 l 0.655306,-1.465564 h 1.864125 c 9.206983,0 16.761657,-7.358506 16.972068,-16.531363 l 0.0456,-1.987949 0.792346,-0.359386 c 3.076248,-1.395299 7.747001,-2.518416 12.05321,-2.898284 4.907504,-0.43291 10.43179,0.309293 15.496636,2.082013 l 2.209441,0.773316 0.134708,2.311279 c 0.226197,3.881019 1.355716,7.046813 3.564158,9.989547 1.987622,2.648496 5.269343,4.924849 8.647342,5.998197 1.120695,0.356096 2.16188,0.489988 4.432107,0.569949 l 2.967304,0.104514 0.462182,1.072687 c 1.149202,2.667208 2.170518,6.148328 2.739757,9.338368 0.372134,2.085451 0.374189,9.615376 0.0032,11.718435 -0.393252,2.229261 -1.423756,6.078296 -2.038418,7.613689 L 85.723,65.749161 84.212667,65.565127 c -2.01729,-0.245806 -5.021227,0.117013 -7.208272,0.870624 -5.751682,1.981915 -10.037361,6.92336 -11.264153,12.987721 -0.271422,1.341717 -0.331295,2.372424 -0.245711,4.229999 l 0.113159,2.456023 -1.673753,0.645466 c -2.034257,0.784492 -4.861489,1.545155 -7.388822,1.987948 -2.284765,0.400296 -7.750326,0.565831 -10.044373,0.304213 z"
       style="fill:#000000;fill-opacity:0.67038;fill-rule:evenodd;stroke:#fffffd;stroke-width:1.38330711;stroke-opacity:1;stroke-miterlimit:4;stroke-dasharray:none" />
    <path
       transform="scale(0.26458333)"
       id="path890"
       d="M 15.538735,32.957961 C 7.7302661,31.767103 2.0334652,25.266881 2.0334652,17.548038 c 0,-8.0579527 5.8174116,-14.5820524 13.8867798,-15.573719 7.303475,-0.8975439 14.406282,3.8890873 16.652924,11.222521 1.915307,6.251898 -0.757645,13.484106 -6.371259,17.23872 -3.093298,2.068925 -7.22619,3.046571 -10.663175,2.522401 z"
       style="fill:#000000;fill-opacity:0.67038;fill-rule:evenodd;stroke:#fffffd;stroke-width:1.42488191;stroke-miterlimit:4;stroke-dasharray:none;stroke-opacity:1" />
    <path
       transform="scale(0.26458333)"
       id="path892"
       d="M 80.604849,32.988509 C 74.013445,31.937951 68.767715,27.002594 67.41685,20.580805 65.717686,12.503259 71.027848,4.257886 79.201455,2.2822162 c 1.848208,-0.4467364 5.166349,-0.4423688 7.05826,0.00929 4.85827,1.1598237 9.322067,5.1005533 11.053493,9.7582468 1.227998,3.303426 1.298193,7.102804 0.190596,10.316162 -0.892206,2.588464 -1.76917,3.956326 -3.920015,6.114315 -2.117624,2.124657 -4.105895,3.313319 -6.783172,4.055231 -1.759832,0.487674 -4.651754,0.699137 -6.195768,0.453048 z"
       style="fill:#000000;fill-opacity:0.67038;fill-rule:evenodd;stroke:#fffffd;stroke-width:1.42488191;stroke-miterlimit:4;stroke-dasharray:none;stroke-opacity:1" />
    <path
       transform="scale(0.26458333)"
       id="path894"
       d="m 78.854494,97.833463 c -3.04798,-0.798224 -5.36726,-2.187076 -7.558962,-4.526526 -2.724717,-2.908396 -3.964304,-5.889326 -4.132034,-9.936626 -0.123261,-2.974244 0.23575,-4.831965 1.394556,-7.216211 1.631224,-3.356248 4.044667,-5.823067 7.221481,-7.381192 2.456388,-1.20478 3.984665,-1.556091 6.818169,-1.567317 2.910081,-0.01153 4.333283,0.325756 7.114764,1.686138 1.657635,0.810726 2.286536,1.271388 3.784958,2.772444 2.064518,2.068144 3.096659,3.712393 4.013432,6.393585 0.583779,1.707318 0.648668,2.150859 0.65971,4.509295 0.01431,3.058268 -0.299506,4.485808 -1.54107,7.010135 -2.017055,4.10104 -5.767764,7.142202 -10.209692,8.278256 -2.124755,0.543421 -5.44317,0.533779 -7.565312,-0.02198 z"
       style="fill:#000000;fill-opacity:0.67038;fill-rule:evenodd;stroke:#fffffd;stroke-width:1.42488191;stroke-miterlimit:4;stroke-dasharray:none;stroke-opacity:1" />
    <path
       transform="scale(0.26458333)"
       id="path896"
       d="M 13.7519,97.833099 C 6.7771773,96.03216 2.0147011,89.940756 1.9799694,82.776311 1.9580296,78.250552 3.6793882,74.303989 7.0063156,71.252395 13.914772,64.915676 24.745874,66.049342 30.19029,73.679009 c 1.984548,2.781093 2.877393,5.603749 2.877604,9.097302 4.18e-4,7.149293 -4.84131,13.296179 -11.868503,15.067781 -2.182278,0.550167 -5.291989,0.545576 -7.447491,-0.01099 z"
       style="fill:#000000;fill-opacity:0.67038;fill-rule:evenodd;stroke:#fffffd;stroke-width:1.42488191;stroke-miterlimit:4;stroke-dasharray:none;stroke-opacity:1" />
    <path
       style="fill:#ffffff;fill-opacity:1;fill-rule:evenodd;stroke:#ffffff;stroke-width:0.0402646;stroke-opacity:1"
       d="M 8.1823771,17.611598 C 7.8610074,17.258763 7.5280368,16.695168 7.2743946,16.074744 7.2152147,15.929974 7.1668977,15.805028 7.167031,15.797082 c 9.77e-5,-0.008 0.1431839,-0.06551 0.3178845,-0.127946 0.174703,-0.06242 0.3905508,-0.152807 0.4796627,-0.200848 C 8.4507228,15.206185 8.907161,14.59231 9.0242965,14.04303 9.0959914,13.706843 9.0812271,13.268582 8.9883598,12.976286 8.861693,12.577605 8.8006497,12.480722 8.4761652,12.163367 8.2233609,11.916117 8.172869,11.877853 7.9808841,11.788275 7.8633125,11.733402 7.6436675,11.663343 7.4927849,11.632588 7.341899,11.601836 7.2182303,11.563735 7.2179596,11.547924 7.2168987,11.485769 7.5324509,10.787329 7.6913667,10.500095 8.0159204,9.9134752 8.2341937,9.6266014 8.7925637,9.0528061 9.3508157,8.479132 9.6354182,8.2493335 10.206364,7.9112519 10.513812,7.7291987 11.037993,7.4705634 11.167206,7.4371645 l 0.07327,-0.018938 0.04679,0.2355901 c 0.09943,0.5006905 0.26245,0.7806353 0.661949,1.1367326 0.268212,0.2390735 0.412789,0.3183285 0.737504,0.4043036 0.399253,0.1057081 0.953494,0.065859 1.355088,-0.097428 0.105123,-0.042739 0.285758,-0.1478763 0.401415,-0.2336303 0.513166,-0.3804918 0.80436,-0.8211839 0.922482,-1.3961667 0.02321,-0.1129596 0.05074,-0.2141704 0.06119,-0.2249195 0.04693,-0.048292 0.700303,0.2305557 1.230262,0.5250488 0.498631,0.277084 0.622602,0.3766278 1.235502,0.99206 0.522639,0.5247979 0.561232,0.5693119 0.730495,0.8425566 0.213351,0.3444181 0.537921,0.9946442 0.633582,1.2692842 l 0.06869,0.197233 -0.138947,0.02697 c -0.473849,0.09197 -0.817296,0.283496 -1.182713,0.659569 -0.292579,0.301109 -0.384619,0.439843 -0.49915,0.752397 -0.176428,0.481466 -0.185306,0.973926 -0.02627,1.459221 0.09253,0.282426 0.184626,0.423135 0.4379,0.66906 0.380964,0.369879 0.61066,0.495383 1.039523,0.567887 0.136859,0.02314 0.253544,0.04668 0.259307,0.05231 0.02185,0.02138 -0.160126,0.453787 -0.327733,0.778756 -0.376858,0.730675 -0.749587,1.232103 -1.357493,1.826218 -0.436811,0.426901 -0.674798,0.618668 -1.096472,0.88351 -0.450168,0.282741 -1.186577,0.651157 -1.22549,0.613099 -0.0076,-0.0074 -0.04066,-0.128125 -0.07341,-0.268157 -0.03275,-0.140036 -0.10661,-0.349675 -0.164119,-0.465872 -0.09244,-0.186779 -0.1348,-0.240771 -0.365418,-0.465792 -0.305776,-0.298358 -0.480587,-0.409433 -0.783778,-0.498018 -0.403092,-0.117781 -0.807369,-0.116723 -1.211238,0.0032 -0.413557,0.12276 -0.500615,0.180136 -0.900697,0.5936 -0.328635,0.339544 -0.36227,0.381982 -0.465627,0.586011 -0.06128,0.120968 -0.131817,0.308479 -0.156758,0.416687 -0.02494,0.108201 -0.05017,0.215436 -0.05607,0.238287 -0.01479,0.0573 -0.300187,-0.04193 -0.825654,-0.287093 C 9.6483906,18.950961 9.4461776,18.814019 8.9823502,18.382642 8.772372,18.187362 8.5543696,17.986559 8.4978901,17.936427 8.4413817,17.886332 8.299424,17.740124 8.1823674,17.611599 Z m 1.6550449,0.03622 c 0.287244,0.228212 0.641881,0.446963 0.999915,0.616756 l 0.301251,0.142865 0.09503,-0.08838 c 0.384,-0.357021 0.67873,-0.595957 0.860283,-0.697425 0.275743,-0.154104 0.689887,-0.264225 1.053463,-0.280109 0.665335,-0.02906 1.122667,0.146651 1.692856,0.650439 l 0.251469,0.222181 0.202692,-0.111171 c 0.111485,-0.06114 0.358437,-0.206189 0.548788,-0.322325 l 0.34609,-0.211157 0.5569,-0.595336 c 0.504991,-0.539844 0.571251,-0.619254 0.710846,-0.851918 0.13908,-0.231803 0.519174,-0.962582 0.518589,-0.997048 -1.64e-4,-0.0078 -0.109685,-0.14156 -0.243448,-0.297402 -0.389791,-0.454103 -0.53446,-0.767398 -0.596941,-1.292711 -0.06577,-0.55293 0.07437,-1.09699 0.413969,-1.607237 0.106216,-0.159589 0.238918,-0.348719 0.294895,-0.42029 0.101704,-0.13003 0.101739,-0.130228 0.04673,-0.267266 -0.03028,-0.07542 -0.122421,-0.258579 -0.204758,-0.407002 C 17.181041,9.9229819 16.468565,9.2689879 15.466686,8.7961163 l -0.340919,-0.1609078 -0.13533,0.1097181 c -0.51748,0.4195525 -0.811894,0.5812584 -1.254323,0.6889313 -0.727078,0.1769486 -1.453877,-0.003 -2.060139,-0.5100828 L 11.47402,8.7548515 11.260908,8.8588295 C 10.97693,8.9973828 10.537436,9.2597399 10.281275,9.4436269 10.107642,9.5682691 9.9881346,9.6843464 9.5573102,10.146818 8.982905,10.763416 8.9252412,10.839786 8.6453966,11.354541 l -0.1960814,0.36068 0.2653233,0.30672 c 0.3987029,0.460907 0.5426723,0.779881 0.594318,1.316725 0.0718,0.746342 -0.204029,1.433878 -0.8363079,2.084593 l -0.1562771,0.160834 0.069012,0.15493 c 0.098973,0.222188 0.3485016,0.663246 0.5454265,0.964073 0.1890601,0.28881 0.5357106,0.65003 0.9066162,0.94472 z"
       id="path848" />
  </g>
</svg>
