<?xml version="1.0" encoding="UTF-8" standalone="no"?>
<svg
   xmlns:dc="http://purl.org/dc/elements/1.1/"
   xmlns:cc="http://creativecommons.org/ns#"
   xmlns:rdf="http://www.w3.org/1999/02/22-rdf-syntax-ns#"
   xmlns:svg="http://www.w3.org/2000/svg"
   xmlns="http://www.w3.org/2000/svg"
   xmlns:sodipodi="http://sodipodi.sourceforge.net/DTD/sodipodi-0.dtd"
   xmlns:inkscape="http://www.inkscape.org/namespaces/inkscape"
   sodipodi:docname="Circles_button.svg"
   inkscape:version="1.0 (4035a4fb49, 2020-05-01)"
   id="svg8"
   version="1.1"
   viewBox="0 0 33.866667 33.866667"
   height="128"
   width="128">
  <defs
     id="defs2" />
  <sodipodi:namedview
     inkscape:window-maximized="1"
     inkscape:window-y="27"
     inkscape:window-x="0"
     inkscape:window-height="1376"
     inkscape:window-width="2560"
     width="128px"
     units="px"
     showgrid="false"
     inkscape:document-rotation="0"
     inkscape:current-layer="layer1"
     inkscape:document-units="mm"
     inkscape:cy="60.027078"
     inkscape:cx="40.14407"
     inkscape:zoom="3.9415888"
     inkscape:pageshadow="2"
     inkscape:pageopacity="0.0"
     borderopacity="1.0"
     bordercolor="#666666"
     pagecolor="#ffffff"
     id="base" />
  <metadata
     id="metadata5">
    <rdf:RDF>
      <cc:Work
         rdf:about="">
        <dc:format>image/svg+xml</dc:format>
        <dc:type
           rdf:resource="http://purl.org/dc/dcmitype/StillImage" />
        <dc:title></dc:title>
      </cc:Work>
    </rdf:RDF>
  </metadata>
  <g
     id="layer1"
     inkscape:groupmode="layer"
     inkscape:label="Layer 1">
    <path
       style="fill:#ffffff;fill-opacity:1;fill-rule:evenodd;stroke:none;stroke-width:0.232;stroke-miterlimit:4;stroke-dasharray:none;stroke-opacity:0"
       d="m 24.285961,33.081891 c -2.981278,-0.299804 -5.59839,-2.249754 -6.726293,-5.011606 -0.619751,-1.51756 -0.770412,-3.121693 -0.443411,-4.721127 0.139296,-0.681329 0.335857,-1.252342 0.656333,-1.906659 1.231133,-2.513603 3.577567,-4.187511 6.35254,-4.5318 0.483493,-0.05998 1.548303,-0.05056 2.030438,0.01797 3.654256,0.519444 6.474361,3.333847 6.975985,6.961882 0.07164,0.518182 0.08197,1.549508 0.02048,2.046896 -0.438188,3.544864 -3.108702,6.397925 -6.594099,7.044849 -0.730219,0.135537 -1.555012,0.171691 -2.271977,0.09959 z m 1.549474,-1.11604 c 3.301872,-0.360195 5.837156,-2.879259 6.197343,-6.157697 0.14638,-1.332348 -0.0876,-2.620926 -0.698423,-3.84636 -0.952728,-1.91137 -2.686791,-3.234338 -4.851375,-3.701256 -0.363957,-0.0785 -0.538302,-0.09068 -1.318211,-0.09204 -0.781718,-0.0014 -0.95734,0.01027 -1.348387,0.08956 -1.033182,0.209403 -1.996975,0.634891 -2.798522,1.235466 -1.557283,1.166826 -2.530624,2.848357 -2.766504,4.779377 -0.06716,0.549777 -0.02815,1.565085 0.08136,2.118019 0.422926,2.135275 1.779353,3.918019 3.714232,4.881588 1.181721,0.588497 2.51416,0.832349 3.788483,0.693334 z"
       id="path879-7" />
    <path
       id="path896"
       d="M 14.146782,29.885629 C 9.2259476,29.266715 4.9444024,26.230401 2.8025801,21.840739 0.72526034,17.583276 0.87784774,12.609228 3.2112179,8.5199373 5.3326238,4.8021211 8.7353573,2.3176357 12.916045,1.4340165 c 0.735227,-0.1553956 1.139838,-0.1941237 2.352253,-0.2251499 1.722785,-0.044087 2.54509,0.034174 3.863505,0.3676999 5.594002,1.4151443 9.635389,5.6737445 10.7774,11.3566535 0.13898,0.691602 0.159642,1.017007 0.160896,2.533916 8.4e-4,1.146409 -0.03172,1.939644 -0.09569,2.324155 l -0.09712,0.583742 -0.293585,-0.201496 C 29.422238,18.062714 29.024627,17.838741 28.70013,17.675819 l -0.589995,-0.296222 0.05405,-0.334655 c 0.106352,-0.658559 0.04627,-2.561117 -0.108551,-3.437397 C 27.684147,11.504981 26.702539,9.3731564 25.379279,7.7951153 23.637862,5.7184033 21.423343,4.350392 18.634541,3.6285755 17.862288,3.4286957 17.829413,3.4263697 15.828571,3.430041 L 13.80401,3.433751 12.987082,3.6519995 C 10.553379,4.3021862 8.8524302,5.2567482 7.1888782,6.9059233 5.879038,8.2044428 5.0202448,9.4727857 4.3982936,11.02731 3.7727027,12.59093 3.519949,13.90535 3.5240555,15.573692 c 0.00346,1.405569 0.090994,2.209918 0.3478795,3.196676 1.3572158,5.213373 5.7747496,8.887439 11.143305,9.267894 0.479177,0.03396 0.994062,0.04952 1.144189,0.03456 0.150128,-0.01495 0.505223,-0.04245 0.789102,-0.06112 l 0.516145,-0.03394 0.202001,0.445505 c 0.111101,0.245028 0.320215,0.630301 0.464699,0.856166 0.144483,0.225864 0.252869,0.419776 0.240857,0.430916 -0.175666,0.162893 -3.29509,0.292292 -4.225451,0.175278 z"
       style="fill:#ffffff;fill-opacity:1;fill-rule:evenodd;stroke:none;stroke-width:0.132;stroke-miterlimit:4;stroke-dasharray:none;stroke-opacity:0" />
  </g>
</svg>
